<svg width="48" height="48" viewBox="0 0 48 48" fill="none" xmlns="http://www.w3.org/2000/svg">
<g id="Property 1=white_purple">
<rect width="48" height="48" rx="24" fill="#B3A1FF"/>
<g id="calendar_today">
<mask id="mask0_179_1612" style="mask-type:alpha" maskUnits="userSpaceOnUse" x="8" y="8" width="32" height="32">
<rect id="Bounding box" x="8" y="8" width="32" height="32" fill="#D9D9D9"/>
</mask>
<g mask="url(#mask0_179_1612)">
<path id="calendar_today_2" d="M15.077 36.6667C14.4034 36.6667 13.8333 36.4333 13.3667 35.9667C12.9 35.5 12.6667 34.9299 12.6667 34.2563V16.4103C12.6667 15.7368 12.9 15.1667 13.3667 14.7C13.8333 14.2333 14.4034 14 15.077 14H16.923V12.205C16.923 11.9128 17.0209 11.6688 17.2167 11.473C17.4124 11.2774 17.6564 11.1797 17.9487 11.1797C18.2411 11.1797 18.4851 11.2774 18.6807 11.473C18.8764 11.6688 18.9743 11.9128 18.9743 12.205V14H29.077V12.1797C29.077 11.8959 29.1727 11.6582 29.364 11.4667C29.5555 11.2753 29.7932 11.1797 30.077 11.1797C30.3608 11.1797 30.5983 11.2753 30.7897 11.4667C30.9812 11.6582 31.077 11.8959 31.077 12.1797V14H32.923C33.5965 14 34.1667 14.2333 34.6333 14.7C35.1 15.1667 35.3333 15.7368 35.3333 16.4103V34.2563C35.3333 34.9299 35.1 35.5 34.6333 35.9667C34.1667 36.4333 33.5965 36.6667 32.923 36.6667H15.077ZM15.077 34.6667H32.923C33.0257 34.6667 33.1197 34.6239 33.205 34.5383C33.2905 34.453 33.3333 34.359 33.3333 34.2563V21.7437H14.6667V34.2563C14.6667 34.359 14.7094 34.453 14.795 34.5383C14.8803 34.6239 14.9743 34.6667 15.077 34.6667ZM14.6667 19.7437H33.3333V16.4103C33.3333 16.3077 33.2905 16.2137 33.205 16.1283C33.1197 16.0428 33.0257 16 32.923 16H15.077C14.9743 16 14.8803 16.0428 14.795 16.1283C14.7094 16.2137 14.6667 16.3077 14.6667 16.4103V19.7437Z" fill="#2C0E67"/>
</g>
</g>
</g>
</svg>
