<svg width="32" height="32" viewBox="0 0 32 32" fill="none" xmlns="http://www.w3.org/2000/svg">
<g id="Hilfe &#38; Kontakt">
<rect width="32" height="32" rx="16" fill="#B3A1FF"/>
<g id="help">
<mask id="mask0_358_4348" style="mask-type:alpha" maskUnits="userSpaceOnUse" x="5" y="5" width="22" height="22">
<rect id="Bounding box" x="5.33331" y="5.33333" width="21.3333" height="21.3333" fill="#D9D9D9"/>
</mask>
<g mask="url(#mask0_358_4348)">
<path id="help_2" d="M15.9902 20.9913C16.244 20.9913 16.4584 20.9038 16.6333 20.7287C16.8083 20.5534 16.8958 20.3388 16.8958 20.0849C16.8958 19.8311 16.8081 19.6167 16.6329 19.4418C16.4576 19.267 16.2431 19.1796 15.9893 19.1796C15.7355 19.1796 15.5212 19.2672 15.3462 19.4424C15.1712 19.6177 15.0838 19.8322 15.0838 20.086C15.0838 20.3398 15.1714 20.5541 15.3467 20.7291C15.5219 20.9039 15.7364 20.9913 15.9902 20.9913ZM16.0015 24.4444C14.8335 24.4444 13.7357 24.2228 12.708 23.7796C11.6803 23.3363 10.7864 22.7347 10.0262 21.9749C9.26606 21.215 8.66421 20.3215 8.22065 19.2942C7.77725 18.267 7.55554 17.1694 7.55554 16.0016C7.55554 14.8336 7.77717 13.7357 8.22043 12.708C8.66369 11.6803 9.26525 10.7864 10.0251 10.0262C10.7849 9.26607 11.6785 8.66422 12.7058 8.22066C13.733 7.77726 14.8306 7.55555 15.9984 7.55555C17.1664 7.55555 18.2643 7.77718 19.292 8.22044C20.3197 8.6637 21.2136 9.26526 21.9738 10.0251C22.7339 10.785 23.3358 11.6785 23.7793 12.7058C24.2227 13.733 24.4444 14.8306 24.4444 15.9984C24.4444 17.1664 24.2228 18.2643 23.7795 19.292C23.3363 20.3197 22.7347 21.2136 21.9749 21.9738C21.215 22.7339 20.3215 23.3358 19.2942 23.7793C18.2669 24.2227 17.1694 24.4444 16.0015 24.4444ZM16 23.1111C17.9852 23.1111 19.6667 22.4222 21.0444 21.0444C22.4222 19.6667 23.1111 17.9852 23.1111 16C23.1111 14.0148 22.4222 12.3333 21.0444 10.9556C19.6667 9.57778 17.9852 8.88889 16 8.88889C14.0148 8.88889 12.3333 9.57778 10.9555 10.9556C9.57776 12.3333 8.88888 14.0148 8.88888 16C8.88888 17.9852 9.57776 19.6667 10.9555 21.0444C12.3333 22.4222 14.0148 23.1111 16 23.1111ZM16.072 12.1949C16.4821 12.1949 16.837 12.324 17.1367 12.5822C17.4365 12.8404 17.5864 13.1632 17.5864 13.5504C17.5864 13.8764 17.4907 14.1681 17.2991 14.4256C17.1077 14.6832 16.8889 14.9231 16.6427 15.1453C16.32 15.4316 16.0359 15.7464 15.7904 16.09C15.545 16.4334 15.4137 16.8159 15.3967 17.2376C15.3909 17.3995 15.4478 17.5351 15.5675 17.6444C15.6872 17.7538 15.8268 17.8084 15.9862 17.8084C16.1572 17.8084 16.3019 17.7515 16.4204 17.6376C16.5389 17.5236 16.6147 17.3841 16.6478 17.2189C16.707 16.9134 16.8332 16.6413 17.0264 16.4027C17.2196 16.1638 17.4289 15.9368 17.6542 15.7216C17.9782 15.4057 18.2609 15.0614 18.5024 14.6887C18.7441 14.3158 18.8649 13.8999 18.8649 13.4411C18.8649 12.7368 18.5874 12.1581 18.0324 11.7051C17.4775 11.2522 16.8296 11.0258 16.0889 11.0258C15.5601 11.0258 15.0615 11.1428 14.5931 11.3769C14.1248 11.6111 13.7601 11.9527 13.4991 12.4018C13.4182 12.5397 13.3923 12.6848 13.4213 12.8371C13.4502 12.9896 13.5284 13.1053 13.6558 13.1842C13.818 13.2744 13.9846 13.3002 14.1555 13.2616C14.3265 13.2227 14.4718 13.1253 14.5913 12.9693C14.7715 12.7357 14.9895 12.5482 15.2453 12.4069C15.5012 12.2656 15.7767 12.1949 16.072 12.1949Z" fill="#2C0E67"/>
</g>
</g>
</g>
</svg>
