<svg width="48" height="48" viewBox="0 0 48 48" fill="none" xmlns="http://www.w3.org/2000/svg">
<g id="Property 1=white_purple">
<rect width="48" height="48" rx="24" fill="#B3A1FF"/>
<g id="hail">
<mask id="mask0_200_2095" style="mask-type:alpha" maskUnits="userSpaceOnUse" x="8" y="8" width="32" height="32">
<rect id="Bounding box" x="8" y="8" width="32" height="32" fill="#D9D9D9"/>
</mask>
<g mask="url(#mask0_200_2095)">
<path id="hail_2" d="M13.923 35.7887V30.878C13.923 30.5302 14.0385 30.2414 14.2696 30.0117C14.5005 29.7817 14.7868 29.6667 15.1283 29.6667H16.0513C16.3926 29.6667 16.6789 29.7817 16.91 30.0117C17.1409 30.2414 17.2563 30.5302 17.2563 30.878V35.7887C17.2563 36.1364 17.1409 36.4252 16.91 36.655C16.6789 36.885 16.3926 37 16.0513 37H15.1283C14.7868 37 14.5005 36.885 14.2696 36.655C14.0385 36.4252 13.923 36.1364 13.923 35.7887ZM20.5386 36V20.6333C19.4258 20.97 18.6069 21.5422 18.082 22.35C17.5573 23.1576 17.2205 24.1281 17.0716 25.2617C17.0379 25.507 16.9191 25.7042 16.7153 25.8533C16.5115 26.0024 16.2824 26.077 16.028 26.077C15.7564 26.077 15.5236 25.9872 15.3296 25.8077C15.1354 25.6281 15.0563 25.4101 15.0923 25.1537C15.3623 22.7794 16.2743 20.9296 17.8283 19.604C19.3821 18.2782 21.4393 17.6153 24 17.6153C26.094 17.6153 27.7231 17.2252 28.8873 16.445C30.0513 15.6646 30.7376 14.3317 30.9463 12.4463C30.9821 12.1626 31.0959 11.9274 31.2876 11.741C31.4794 11.5548 31.717 11.4617 32.0003 11.4617C32.2839 11.4617 32.5213 11.5582 32.7126 11.7513C32.9042 11.9444 32.982 12.1761 32.946 12.4463C32.7769 14.1214 32.25 15.5407 31.3653 16.704C30.4806 17.8671 29.1793 18.6563 27.4613 19.0717V36C27.4613 36.2833 27.3655 36.5208 27.174 36.7123C26.9822 36.9041 26.7445 37 26.461 37C26.1776 37 25.9402 36.9041 25.7486 36.7123C25.5573 36.5208 25.4616 36.2833 25.4616 36V29.077H22.5383V36C22.5383 36.2833 22.4424 36.5208 22.2506 36.7123C22.0591 36.9041 21.8215 37 21.538 37C21.2546 37 21.0172 36.9041 20.8256 36.7123C20.6343 36.5208 20.5386 36.2833 20.5386 36ZM24 15.846C23.318 15.846 22.7372 15.6063 22.2576 15.127C21.7781 14.6474 21.5383 14.0667 21.5383 13.3847C21.5383 12.7027 21.7781 12.1219 22.2576 11.6423C22.7372 11.1628 23.318 10.923 24 10.923C24.682 10.923 25.2628 11.1628 25.7423 11.6423C26.2219 12.1219 26.4616 12.7027 26.4616 13.3847C26.4616 14.0667 26.2219 14.6474 25.7423 15.127C25.2628 15.6063 24.682 15.846 24 15.846Z" fill="#2C0E67"/>
</g>
</g>
</g>
</svg>
