<svg width="48" height="48" viewBox="0 0 48 48" fill="none" xmlns="http://www.w3.org/2000/svg">
<rect width="48" height="48" rx="24" fill="#B3A1FF"/>
<mask id="mask0_976_2806" style="mask-type:alpha" maskUnits="userSpaceOnUse" x="8" y="8" width="32" height="32">
<rect x="8" y="8" width="32" height="32" fill="#D9D9D9"/>
</mask>
<g mask="url(#mask0_976_2806)">
<path d="M16.6923 35.3333C16.409 35.3333 16.1716 35.2374 15.98 35.0457C15.7882 34.8541 15.6923 34.6167 15.6923 34.3333V31.7027C15.2752 31.3864 14.8889 30.939 14.5333 30.3603C14.1778 29.7817 14 29.1317 14 28.4103V16C14 14.3862 14.8021 13.205 16.4063 12.4563C18.0103 11.7077 20.5414 11.3333 23.9997 11.3333C27.5828 11.3333 30.1452 11.6931 31.687 12.4127C33.229 13.132 34 14.3278 34 16V28.4103C34 29.1317 33.8222 29.7817 33.4667 30.3603C33.1111 30.939 32.7248 31.3864 32.3077 31.7027V34.3333C32.3077 34.6167 32.2118 34.8541 32.02 35.0457C31.8284 35.2374 31.591 35.3333 31.3077 35.3333H30.487C30.2039 35.3333 29.9664 35.2374 29.7747 35.0457C29.5831 34.8541 29.4873 34.6167 29.4873 34.3333V32.6667H18.5127V34.3333C18.5127 34.6167 18.4169 34.8541 18.2253 35.0457C18.0336 35.2374 17.7961 35.3333 17.513 35.3333H16.6923ZM16 22H32V17.0257H16V22ZM19.3363 29.077C19.8214 29.077 20.2328 28.9071 20.5703 28.5673C20.9081 28.2278 21.077 27.8154 21.077 27.3303C21.077 26.8452 20.9071 26.4339 20.5673 26.0963C20.2278 25.7586 19.8154 25.5897 19.3303 25.5897C18.8452 25.5897 18.4339 25.7596 18.0963 26.0993C17.7586 26.4389 17.5897 26.8512 17.5897 27.3363C17.5897 27.8214 17.7596 28.2328 18.0993 28.5703C18.4389 28.9081 18.8512 29.077 19.3363 29.077ZM28.6697 29.077C29.1548 29.077 29.5661 28.9071 29.9037 28.5673C30.2414 28.2278 30.4103 27.8154 30.4103 27.3303C30.4103 26.8452 30.2404 26.4339 29.9007 26.0963C29.5611 25.7586 29.1488 25.5897 28.6637 25.5897C28.1786 25.5897 27.7672 25.7596 27.4297 26.0993C27.0919 26.4389 26.923 26.8512 26.923 27.3363C26.923 27.8214 27.0929 28.2328 27.4327 28.5703C27.7722 28.9081 28.1846 29.077 28.6697 29.077ZM16.3693 15.0257H31.713C31.4308 14.4941 30.7162 14.0791 29.5693 13.7807C28.4222 13.4824 26.5794 13.3333 24.041 13.3333C21.5437 13.3333 19.7214 13.4893 18.5743 13.8013C17.4272 14.1133 16.6922 14.5214 16.3693 15.0257ZM18.6667 30.6667H29.3333C30.0667 30.6667 30.6944 30.4056 31.2167 29.8833C31.7389 29.3611 32 28.7333 32 28V24H16V28C16 28.7333 16.2611 29.3611 16.7833 29.8833C17.3056 30.4056 17.9333 30.6667 18.6667 30.6667Z" fill="#1C1B1F"/>
</g>
</svg>
