<svg width="48" height="48" viewBox="0 0 48 48" fill="none" xmlns="http://www.w3.org/2000/svg">
<g id="Property 1=purple">
<rect width="48" height="48" rx="24" fill="#2C0E67"/>
<g id="directions_car">
<mask id="mask0_89_1627" style="mask-type:alpha" maskUnits="userSpaceOnUse" x="8" y="8" width="32" height="32">
<rect id="Bounding box" x="8" y="8" width="32" height="32" fill="#D9D9D9"/>
</mask>
<g mask="url(#mask0_89_1627)">
<path id="directions_car_2" d="M15.487 32.6667V34.3333C15.487 34.6167 15.3912 34.8541 15.1997 35.0457C15.0079 35.2374 14.7703 35.3333 14.487 35.3333H13.6667C13.3833 35.3333 13.1459 35.2374 12.9543 35.0457C12.7626 34.8541 12.6667 34.6167 12.6667 34.3333V24.1027L15.3897 16.3333C15.489 16.0273 15.6711 15.7842 15.936 15.604C16.2009 15.4236 16.4958 15.3333 16.8207 15.3333H31.2307C31.5427 15.3333 31.826 15.425 32.0807 15.6083C32.3351 15.7917 32.5117 16.0333 32.6103 16.3333L35.3333 24.1027V34.3333C35.3333 34.6167 35.2374 34.8541 35.0457 35.0457C34.8541 35.2374 34.6167 35.3333 34.3333 35.3333H33.513C33.2297 35.3333 32.9921 35.2374 32.8003 35.0457C32.6088 34.8541 32.513 34.6167 32.513 34.3333V32.6667H15.487ZM15.477 22.1027H32.523L30.841 17.3333H17.159L15.477 22.1027ZM17.9517 29.1283C18.4368 29.1283 18.8482 28.9584 19.186 28.6187C19.5236 28.2791 19.6923 27.8668 19.6923 27.3817C19.6923 26.8966 19.5226 26.4851 19.183 26.1473C18.8432 25.8098 18.4308 25.641 17.9457 25.641C17.4606 25.641 17.0492 25.8108 16.7117 26.1503C16.3739 26.4901 16.205 26.9026 16.205 27.3877C16.205 27.8728 16.3749 28.2841 16.7147 28.6217C17.0542 28.9594 17.4666 29.1283 17.9517 29.1283ZM30.0543 29.1283C30.5394 29.1283 30.9508 28.9584 31.2883 28.6187C31.6261 28.2791 31.795 27.8668 31.795 27.3817C31.795 26.8966 31.6251 26.4851 31.2853 26.1473C30.9458 25.8098 30.5334 25.641 30.0483 25.641C29.5632 25.641 29.1518 25.8108 28.814 26.1503C28.4764 26.4901 28.3077 26.9026 28.3077 27.3877C28.3077 27.8728 28.4774 28.2841 28.817 28.6217C29.1568 28.9594 29.5692 29.1283 30.0543 29.1283ZM14.6667 30.6667H33.3333V24.1027H14.6667V30.6667Z" fill="#DBD5FF"/>
</g>
</g>
</g>
</svg>
