<svg width="25" height="25" viewBox="0 0 25 25" fill="none" xmlns="http://www.w3.org/2000/svg">
<mask id="mask0_680_1264" style="mask-type:alpha" maskUnits="userSpaceOnUse" x="0" y="0" width="25" height="25">
<rect x="0.791138" y="0.138275" width="24" height="24" fill="#D9D9D9"/>
</mask>
<g mask="url(#mask0_680_1264)">
<path d="M2.58942 17.2228C2.58942 16.7074 2.72242 16.2475 2.98842 15.843C3.25442 15.4385 3.60967 15.1239 4.05417 14.899C5.0045 14.4342 5.96008 14.0758 6.92092 13.8238C7.88192 13.5719 8.938 13.446 10.0892 13.446C11.2405 13.446 12.2966 13.5719 13.2574 13.8238C14.2184 14.0758 15.1741 14.4342 16.1244 14.899C16.5689 15.1239 16.9242 15.4385 17.1902 15.843C17.4562 16.2475 17.5892 16.7074 17.5892 17.2228V17.9268C17.5892 18.3293 17.4414 18.6831 17.1459 18.9883C16.8504 19.2934 16.4918 19.446 16.0699 19.446H4.10842C3.68675 19.446 3.32817 19.2983 3.03267 19.0028C2.73717 18.7071 2.58942 18.3484 2.58942 17.9268V17.2228ZM21.4739 19.446H19.2027C19.3283 19.2165 19.4242 18.9723 19.4902 18.7133C19.5562 18.4543 19.5892 18.1921 19.5892 17.9268V17.0998C19.5892 16.4434 19.4285 15.8179 19.1072 15.223C18.7857 14.6284 18.3297 14.1181 17.7392 13.6923C18.4097 13.7923 19.0463 13.947 19.6489 14.1565C20.2514 14.3662 20.8264 14.6139 21.3739 14.8998C21.8906 15.1754 22.2896 15.5004 22.5709 15.8745C22.8523 16.2485 22.9929 16.6569 22.9929 17.0998V17.9268C22.9929 18.3484 22.8452 18.7071 22.5497 19.0028C22.2542 19.2983 21.8956 19.446 21.4739 19.446ZM10.0892 11.8305C9.12667 11.8305 8.30275 11.4879 7.61742 10.8025C6.93208 10.117 6.58942 9.29302 6.58942 8.33052C6.58942 7.36802 6.93208 6.5441 7.61742 5.85877C8.30275 5.17327 9.12667 4.83052 10.0892 4.83052C11.0517 4.83052 11.8757 5.17327 12.5612 5.85877C13.2465 6.5441 13.5892 7.36802 13.5892 8.33052C13.5892 9.29302 13.2465 10.117 12.5612 10.8025C11.8757 11.4879 11.0517 11.8305 10.0892 11.8305ZM18.7237 8.33052C18.7237 9.29302 18.381 10.117 17.6957 10.8025C17.0103 11.4879 16.1864 11.8305 15.2239 11.8305C15.1111 11.8305 14.9675 11.8177 14.7932 11.792C14.6187 11.7664 14.4751 11.7382 14.3624 11.7075C14.7568 11.2334 15.0598 10.7074 15.2717 10.1295C15.4833 9.55169 15.5892 8.95169 15.5892 8.32952C15.5892 7.70719 15.4812 7.10944 15.2652 6.53627C15.0492 5.96327 14.7483 5.43577 14.3624 4.95377C14.5059 4.90244 14.6495 4.8691 14.7932 4.85377C14.9367 4.83827 15.0803 4.83052 15.2239 4.83052C16.1864 4.83052 17.0103 5.17327 17.6957 5.85877C18.381 6.5441 18.7237 7.36802 18.7237 8.33052ZM4.08917 17.946H16.0892V17.2228C16.0892 17.0139 16.0369 16.8281 15.9324 16.6653C15.8281 16.5024 15.6624 16.3601 15.4354 16.2383C14.6124 15.8139 13.765 15.4924 12.8932 15.2738C12.0213 15.0553 11.0867 14.946 10.0892 14.946C9.09183 14.946 8.15725 15.0553 7.28542 15.2738C6.41358 15.4924 5.56617 15.8139 4.74317 16.2383C4.51617 16.3601 4.35042 16.5024 4.24592 16.6653C4.14142 16.8281 4.08917 17.0139 4.08917 17.2228V17.946ZM10.0892 10.3305C10.6392 10.3305 11.11 10.1347 11.5017 9.74302C11.8933 9.35135 12.0892 8.88052 12.0892 8.33052C12.0892 7.78052 11.8933 7.30969 11.5017 6.91802C11.11 6.52635 10.6392 6.33052 10.0892 6.33052C9.53917 6.33052 9.06833 6.52635 8.67667 6.91802C8.285 7.30969 8.08917 7.78052 8.08917 8.33052C8.08917 8.88052 8.285 9.35135 8.67667 9.74302C9.06833 10.1347 9.53917 10.3305 10.0892 10.3305Z" fill="#2C0E67"/>
</g>
</svg>
