<svg width="32" height="32" viewBox="0 0 32 32" fill="none" xmlns="http://www.w3.org/2000/svg">
<g id="Benachrichtigungen">
<rect width="32" height="32" rx="16" fill="#B3A1FF"/>
<g id="add_alert">
<mask id="mask0_358_4347" style="mask-type:alpha" maskUnits="userSpaceOnUse" x="5" y="5" width="22" height="22">
<rect id="Bounding box" x="5.33331" y="5.33333" width="21.3333" height="21.3333" fill="#D9D9D9"/>
</mask>
<g mask="url(#mask0_358_4347)">
<path id="add_alert_2" d="M9.9998 22.1195C9.81091 22.1195 9.65261 22.0557 9.52491 21.928C9.39706 21.8001 9.33313 21.6417 9.33313 21.4527C9.33313 21.2638 9.39706 21.1055 9.52491 20.9778C9.65261 20.8502 9.81091 20.7864 9.9998 20.7864H10.94V14.1538C10.94 12.9584 11.309 11.9014 12.0469 10.9829C12.7847 10.0644 13.7319 9.47688 14.8887 9.22043V8.66665C14.8887 8.35806 14.9966 8.09569 15.2125 7.87954C15.4283 7.66354 15.6904 7.55554 15.9987 7.55554C16.3071 7.55554 16.5696 7.66354 16.786 7.87954C17.0026 8.09569 17.1109 8.35806 17.1109 8.66665V9.22043C18.2676 9.47688 19.2149 10.0644 19.9527 10.9829C20.6906 11.9014 21.0596 12.9584 21.0596 14.1538V20.7864H21.9998C22.1887 20.7864 22.347 20.8503 22.4747 20.978C22.6025 21.1058 22.6665 21.2643 22.6665 21.4533C22.6665 21.6422 22.6025 21.8005 22.4747 21.9282C22.347 22.0558 22.1887 22.1195 21.9998 22.1195H9.9998ZM15.9982 24.6153C15.556 24.6153 15.1779 24.458 14.864 24.1433C14.5499 23.8287 14.3929 23.4504 14.3929 23.0084H17.6067C17.6067 23.4518 17.4492 23.8305 17.1342 24.1444C16.8193 24.4584 16.4406 24.6153 15.9982 24.6153ZM12.2734 20.7864H19.7262V14.1538C19.7262 13.1247 19.3625 12.2464 18.6349 11.5189C17.9072 10.7912 17.0288 10.4273 15.9998 10.4273C14.9708 10.4273 14.0924 10.7912 13.3647 11.5189C12.6371 12.2464 12.2734 13.1247 12.2734 14.1538V20.7864ZM15.3331 16.718V17.8291C15.3331 18.018 15.3971 18.1763 15.5249 18.304C15.6528 18.4318 15.8111 18.4958 16 18.4958C16.1891 18.4958 16.3474 18.4318 16.4749 18.304C16.6026 18.1763 16.6665 18.018 16.6665 17.8291V16.718H17.7776C17.9665 16.718 18.1248 16.6541 18.2525 16.5262C18.3803 16.3984 18.4442 16.2399 18.4442 16.0509C18.4442 15.862 18.3803 15.7037 18.2525 15.576C18.1248 15.4484 17.9665 15.3847 17.7776 15.3847H16.6665V14.2735C16.6665 14.0847 16.6025 13.9263 16.4747 13.7984C16.3468 13.6707 16.1885 13.6069 15.9996 13.6069C15.8105 13.6069 15.6522 13.6707 15.5247 13.7984C15.397 13.9263 15.3331 14.0847 15.3331 14.2735V15.3847H14.222C14.0331 15.3847 13.8748 15.4486 13.7471 15.5764C13.6193 15.7043 13.5554 15.8627 13.5554 16.0515C13.5554 16.2406 13.6193 16.3989 13.7471 16.5264C13.8748 16.6541 14.0331 16.718 14.222 16.718H15.3331Z" fill="#2C0E67"/>
</g>
</g>
</g>
</svg>
