<svg width="32" height="32" viewBox="0 0 32 32" fill="none" xmlns="http://www.w3.org/2000/svg">
<g id="Mein Fahrzeug">
<rect width="32" height="32" rx="16" fill="#B3A1FF"/>
<g id="car_gear">
<mask id="mask0_358_4350" style="mask-type:alpha" maskUnits="userSpaceOnUse" x="5" y="5" width="22" height="22">
<rect id="Bounding box" x="5.33337" y="5.33333" width="21.3333" height="21.3333" fill="#D9D9D9"/>
</mask>
<g mask="url(#mask0_358_4350)">
<path id="car_gear_2" d="M21.1462 12.0856C21.5216 12.0856 21.8404 11.9541 22.1025 11.6913C22.3647 11.4285 22.4958 11.1094 22.4958 10.734C22.4958 10.3586 22.3644 10.0398 22.1016 9.77778C21.8388 9.5157 21.5196 9.38466 21.1442 9.38466C20.7688 9.38466 20.4501 9.51607 20.188 9.77889C19.9259 10.0416 19.7949 10.3606 19.7949 10.736C19.7949 11.1114 19.9263 11.4301 20.1891 11.6922C20.4518 11.9544 20.7708 12.0856 21.1462 12.0856ZM21.0547 13.9144C20.9437 13.9144 20.8451 13.878 20.7587 13.8051C20.6723 13.7322 20.6171 13.6405 20.5931 13.53L20.4889 13.0324C20.2861 12.979 20.1012 12.9035 19.9342 12.806C19.7673 12.7085 19.6171 12.592 19.4838 12.4564L19.012 12.6393C18.9099 12.6838 18.8046 12.6858 18.696 12.6453C18.5876 12.6049 18.502 12.5339 18.4393 12.4324L18.3487 12.2649C18.286 12.1636 18.2645 12.0579 18.2842 11.948C18.3039 11.8382 18.3596 11.7467 18.4513 11.6736L18.8273 11.3367C18.7749 11.1304 18.7487 10.9299 18.7487 10.7351C18.7487 10.5401 18.7749 10.3396 18.8273 10.1333L18.4513 9.81022C18.3596 9.73704 18.3039 9.64555 18.2842 9.53578C18.2645 9.42585 18.286 9.32022 18.3487 9.21889L18.4531 9.05978C18.5176 8.95755 18.6015 8.88726 18.7049 8.84889C18.8082 8.81066 18.9105 8.80918 19.012 8.84444L19.47 9.01378C19.6033 8.87807 19.7535 8.76155 19.9205 8.66422C20.0874 8.56674 20.2769 8.49118 20.4889 8.43755L20.5931 7.94022C20.6171 7.8297 20.6723 7.73792 20.7587 7.66489C20.8451 7.592 20.9437 7.55555 21.0547 7.55555H21.2358C21.3469 7.55555 21.4456 7.592 21.532 7.66489C21.6184 7.73792 21.6735 7.8297 21.6973 7.94022L21.8018 8.424C22.0136 8.48666 22.2031 8.56674 22.37 8.66422C22.537 8.76155 22.6871 8.87807 22.8205 9.01378L23.2787 8.85822C23.38 8.82281 23.4828 8.82304 23.5871 8.85889C23.6914 8.89489 23.7749 8.96355 23.8376 9.06489L23.9418 9.21889C24.0045 9.32022 24.026 9.42585 24.0065 9.53578C23.9868 9.64555 23.9311 9.73704 23.8393 9.81022L23.4769 10.1333C23.5293 10.3396 23.5579 10.5424 23.5625 10.7418C23.5669 10.9413 23.5384 11.1442 23.4769 11.3504L23.8429 11.6736C23.9328 11.7453 23.9875 11.8364 24.0069 11.9471C24.0262 12.0576 24.0045 12.1636 23.9418 12.2649L23.8513 12.4102C23.7876 12.5124 23.7016 12.5827 23.5931 12.6211C23.4848 12.6595 23.38 12.661 23.2787 12.6256L22.8205 12.4564C22.6871 12.592 22.5348 12.7085 22.3633 12.806C22.1918 12.9035 22.0046 12.979 21.8018 13.0324L21.6973 13.53C21.6735 13.6405 21.6184 13.7322 21.532 13.8051C21.4456 13.878 21.3469 13.9144 21.2358 13.9144H21.0547ZM9.11112 23.5556C8.92224 23.5556 8.76394 23.4916 8.63624 23.3638C8.50838 23.2361 8.44446 23.0778 8.44446 22.8889V16.3453C8.44446 16.253 8.45046 16.1607 8.46246 16.0684C8.47446 15.9761 8.49527 15.8884 8.5249 15.8051L10.2598 10.8889C10.326 10.6849 10.4474 10.5228 10.624 10.4027C10.8006 10.2824 10.9972 10.2222 11.2138 10.2222H15.1949C15.3783 10.2222 15.5339 10.2861 15.6616 10.4138C15.7891 10.5413 15.8558 10.6969 15.8616 10.8804C15.8672 11.0696 15.8053 11.2294 15.676 11.3598C15.5465 11.4903 15.3862 11.5556 15.1949 11.5556H11.4393L10.318 14.7351H18.7745C18.9633 14.7351 19.1216 14.799 19.2493 14.9269C19.3772 15.0547 19.4411 15.2131 19.4411 15.402C19.4411 15.591 19.3772 15.7493 19.2493 15.8769C19.1216 16.0046 18.9633 16.0684 18.7745 16.0684H9.77779V20.4444H22.2222V16.13C22.2222 15.9411 22.2862 15.7827 22.414 15.6549C22.5419 15.5272 22.7002 15.4633 22.8891 15.4633C23.0782 15.4633 23.2365 15.5272 23.364 15.6549C23.4917 15.7827 23.5556 15.9411 23.5556 16.13V22.8889C23.5556 23.0778 23.4916 23.2361 23.3638 23.3638C23.2361 23.4916 23.0778 23.5556 22.8889 23.5556H22.342C22.1531 23.5556 21.9948 23.4916 21.8669 23.3638C21.7392 23.2361 21.6753 23.0778 21.6753 22.8889V21.7778H10.3247V22.8889C10.3247 23.0778 10.2608 23.2361 10.1331 23.3638C10.0053 23.4916 9.8469 23.5556 9.65801 23.5556H9.11112ZM11.9678 19.4189C12.2912 19.4189 12.5655 19.3056 12.7907 19.0791C13.0157 18.8527 13.1282 18.5779 13.1282 18.2544C13.1282 17.931 13.0151 17.6567 12.7887 17.4316C12.5622 17.2065 12.2872 17.094 11.9638 17.094C11.6404 17.094 11.3662 17.2072 11.1411 17.4336C10.9159 17.6601 10.8033 17.935 10.8033 18.2584C10.8033 18.5819 10.9166 18.8561 11.1431 19.0811C11.3695 19.3063 11.6444 19.4189 11.9678 19.4189ZM20.0362 19.4189C20.3596 19.4189 20.6339 19.3056 20.8589 19.0791C21.0841 18.8527 21.1967 18.5779 21.1967 18.2544C21.1967 17.931 21.0834 17.6567 20.8569 17.4316C20.6305 17.2065 20.3556 17.094 20.0322 17.094C19.7088 17.094 19.4345 17.2072 19.2093 17.4336C18.9843 17.6601 18.8718 17.935 18.8718 18.2584C18.8718 18.5819 18.985 18.8561 19.2113 19.0811C19.4379 19.3063 19.7128 19.4189 20.0362 19.4189Z" fill="#2C0E67"/>
</g>
</g>
</g>
</svg>
