<svg width="32" height="32" viewBox="0 0 32 32" fill="none" xmlns="http://www.w3.org/2000/svg">
<g id="Meine Fahrten">
<rect width="32" height="32" rx="16" fill="#B3A1FF"/>
<g id="route">
<mask id="mask0_358_4349" style="mask-type:alpha" maskUnits="userSpaceOnUse" x="5" y="5" width="22" height="22">
<rect id="Bounding box" x="5.33337" y="5.33333" width="21.3333" height="21.3333" fill="#D9D9D9"/>
</mask>
<g mask="url(#mask0_358_4349)">
<path id="route_2" d="M13.3334 23.7778C12.4127 23.7778 11.6269 23.4524 10.9761 22.8018C10.3254 22.151 10.0001 21.3652 10.0001 20.4444V13.024C9.48155 12.8314 9.05562 12.5234 8.72229 12.1C8.38896 11.6766 8.22229 11.1998 8.22229 10.6696C8.22229 9.9897 8.45985 9.41185 8.93496 8.936C9.41007 8.46015 9.98696 8.22222 10.6656 8.22222C11.3444 8.22222 11.9217 8.46015 12.3974 8.936C12.8733 9.41185 13.1112 9.9897 13.1112 10.6696C13.1112 11.1998 12.9445 11.6766 12.6112 12.1C12.2778 12.5234 11.8519 12.8314 11.3334 13.024V20.4444C11.3334 20.9945 11.5294 21.4653 11.9214 21.8569C12.3134 22.2486 12.7846 22.4444 13.335 22.4444C13.8855 22.4444 14.3562 22.2486 14.7472 21.8569C15.138 21.4653 15.3334 20.9945 15.3334 20.4444V11.5556C15.3334 10.6348 15.6587 9.84904 16.3094 9.19822C16.9602 8.54755 17.746 8.22222 18.6667 8.22222C19.5875 8.22222 20.3733 8.54755 21.0241 9.19822C21.6747 9.84904 22.0001 10.6348 22.0001 11.5556V18.976C22.5186 19.1686 22.9445 19.4766 23.2778 19.9C23.6112 20.3234 23.7778 20.8002 23.7778 21.3304C23.7778 22.0103 23.5403 22.5881 23.0652 23.064C22.5901 23.5399 22.0132 23.7778 21.3345 23.7778C20.6557 23.7778 20.0784 23.5399 19.6027 23.064C19.1269 22.5881 18.889 22.0103 18.889 21.3304C18.889 20.8002 19.0556 20.3197 19.389 19.8889C19.7223 19.4581 20.1482 19.1538 20.6667 18.976V11.5556C20.6667 11.0055 20.4707 10.5347 20.0787 10.1431C19.6867 9.75141 19.2156 9.55555 18.6652 9.55555C18.1147 9.55555 17.6439 9.75141 17.253 10.1431C16.8621 10.5347 16.6667 11.0055 16.6667 11.5556V20.4444C16.6667 21.3652 16.3414 22.151 15.6907 22.8018C15.0399 23.4524 14.2541 23.7778 13.3334 23.7778ZM10.6667 11.7778C10.9756 11.7778 11.238 11.6698 11.4538 11.4538C11.6698 11.2379 11.7778 10.9756 11.7778 10.6667C11.7778 10.3578 11.6698 10.0954 11.4538 9.87956C11.238 9.66356 10.9756 9.55555 10.6667 9.55555C10.3578 9.55555 10.0955 9.66356 9.87962 9.87956C9.66362 10.0954 9.55562 10.3578 9.55562 10.6667C9.55562 10.9756 9.66362 11.2379 9.87962 11.4538C10.0955 11.6698 10.3578 11.7778 10.6667 11.7778ZM21.3334 22.4444C21.6423 22.4444 21.9047 22.3364 22.1205 22.1204C22.3365 21.9046 22.4445 21.6422 22.4445 21.3333C22.4445 21.0244 22.3365 20.7621 22.1205 20.5462C21.9047 20.3302 21.6423 20.2222 21.3334 20.2222C21.0245 20.2222 20.7621 20.3302 20.5463 20.5462C20.3303 20.7621 20.2223 21.0244 20.2223 21.3333C20.2223 21.6422 20.3303 21.9046 20.5463 22.1204C20.7621 22.3364 21.0245 22.4444 21.3334 22.4444Z" fill="#2C0E67"/>
</g>
</g>
</g>
</svg>
