<svg width="24" height="24" viewBox="0 0 24 24" fill="none" xmlns="http://www.w3.org/2000/svg">
<g clip-path="url(#clip0_19_8859)">
<path d="M0 22.5V1.5C0 0.675 0.675 0 1.5 0H22.5C23.325 0 24 0.675 24 1.5V22.5C24 23.325 23.325 24 22.5 24H1.5C0.675 24 0 23.325 0 22.5Z" fill="#2D327D"/>
<path d="M17.625 8.25H21V7.5H5.926C5.315 7.5 4.781 7.91 4.622 8.5L3.046 14.369C3.015 14.483 3 14.601 3 14.719V18.525C3 18.856 3.269 19.125 3.6 19.125H10.576C10.907 19.125 11.176 18.856 11.176 18.525C11.176 18.521 11.176 18.518 11.176 18.514C11.175 18.493 11.175 18.471 11.175 18.45C11.175 16.546 12.721 15 14.625 15C16.529 15 18.075 16.546 18.075 18.45C18.075 18.471 18.075 18.493 18.074 18.514C18.074 18.518 18.074 18.521 18.074 18.525C18.074 18.856 18.343 19.125 18.674 19.125H21V13.5H17.625C17.418 13.5 17.25 13.332 17.25 13.125V8.625C17.25 8.418 17.418 8.25 17.625 8.25ZM6.562 14.625C6.562 14.832 6.395 15 6.187 15H4.142C3.935 15 3.767 14.832 3.767 14.625C3.767 14.592 3.771 14.559 3.78 14.528L5.366 8.62C5.436 8.358 5.674 8.176 5.946 8.176H5.963C6.294 8.176 6.563 8.445 6.563 8.776V14.625H6.562ZM8.512 14.475C8.512 14.806 8.243 15.075 7.912 15.075C7.581 15.075 7.312 14.806 7.312 14.475V8.775C7.312 8.444 7.581 8.175 7.912 8.175C8.243 8.175 8.512 8.444 8.512 8.775V14.475ZM10.463 14.475C10.463 14.806 10.194 15.075 9.863 15.075C9.532 15.075 9.263 14.806 9.263 14.475V8.775C9.263 8.444 9.532 8.175 9.863 8.175C10.194 8.175 10.463 8.444 10.463 8.775V14.475ZM16.5 13.125C16.5 13.332 16.332 13.5 16.125 13.5H11.588C11.381 13.5 11.213 13.332 11.213 13.125V8.625C11.213 8.418 11.381 8.25 11.588 8.25H16.125C16.332 8.25 16.5 8.418 16.5 8.625V13.125Z" fill="white"/>
<path d="M14.648 15.847C13.199 15.847 12.023 17.023 12.023 18.472C12.023 19.921 13.199 21.097 14.648 21.097C16.097 21.097 17.273 19.921 17.273 18.472C17.273 17.023 16.097 15.847 14.648 15.847ZM14.648 19.916C13.82 19.916 13.148 19.244 13.148 18.416C13.148 17.588 13.82 16.916 14.648 16.916C15.476 16.916 16.148 17.588 16.148 18.416C16.148 19.244 15.476 19.916 14.648 19.916Z" fill="white"/>
</g>
<g clip-path="url(#clip1_19_8859)">
<path d="M0 22.5V1.5C0 0.675 0.675 0 1.5 0H22.5C23.325 0 24 0.675 24 1.5V22.5C24 23.325 23.325 24 22.5 24H1.5C0.675 24 0 23.325 0 22.5Z" fill="#2D327D"/>
<path d="M6.375 8.25H3V7.5H18.074C18.685 7.5 19.219 7.91 19.378 8.5L20.954 14.369C20.985 14.483 21 14.601 21 14.719V18.525C21 18.856 20.731 19.125 20.4 19.125H13.424C13.093 19.125 12.824 18.856 12.824 18.525C12.824 18.521 12.824 18.518 12.824 18.514C12.825 18.493 12.825 18.471 12.825 18.45C12.825 16.546 11.279 15 9.375 15C7.471 15 5.925 16.546 5.925 18.45C5.925 18.471 5.925 18.493 5.926 18.514C5.926 18.518 5.926 18.521 5.926 18.525C5.926 18.856 5.657 19.125 5.326 19.125H3V13.5H6.375C6.582 13.5 6.75 13.332 6.75 13.125V8.625C6.75 8.418 6.582 8.25 6.375 8.25ZM17.438 14.625C17.438 14.832 17.606 15 17.813 15H19.858C20.065 15 20.233 14.832 20.233 14.625C20.233 14.592 20.229 14.559 20.22 14.528L18.634 8.62C18.564 8.358 18.326 8.176 18.054 8.176H18.038C17.707 8.176 17.438 8.445 17.438 8.776V14.625ZM15.488 14.475C15.488 14.806 15.757 15.075 16.088 15.075C16.419 15.075 16.688 14.806 16.688 14.475V8.775C16.688 8.444 16.419 8.175 16.088 8.175C15.757 8.175 15.488 8.444 15.488 8.775V14.475ZM13.538 14.475C13.538 14.806 13.807 15.075 14.138 15.075C14.469 15.075 14.738 14.806 14.738 14.475V8.775C14.738 8.444 14.469 8.175 14.138 8.175C13.807 8.175 13.538 8.444 13.538 8.775V14.475ZM7.5 13.125C7.5 13.332 7.668 13.5 7.875 13.5H12.412C12.619 13.5 12.787 13.332 12.787 13.125V8.625C12.787 8.418 12.619 8.25 12.412 8.25H7.875C7.668 8.25 7.5 8.418 7.5 8.625V13.125Z" fill="white"/>
<path d="M9.35101 15.847C10.8 15.847 11.976 17.023 11.976 18.472C11.976 19.921 10.8 21.097 9.35101 21.097C7.90201 21.097 6.72601 19.921 6.72601 18.472C6.72701 17.023 7.90201 15.847 9.35101 15.847ZM9.35101 19.916C10.179 19.916 10.851 19.244 10.851 18.416C10.851 17.588 10.179 16.916 9.35101 16.916C8.52301 16.916 7.85101 17.588 7.85101 18.416C7.85201 19.244 8.52401 19.916 9.35101 19.916Z" fill="white"/>
</g>
<defs>
<clipPath id="clip0_19_8859">
<rect width="24" height="24" fill="white"/>
</clipPath>
<clipPath id="clip1_19_8859">
<rect width="24" height="24" fill="white"/>
</clipPath>
</defs>
</svg>
