<svg width="18" height="18" viewBox="0 0 18 18" fill="none" xmlns="http://www.w3.org/2000/svg">
<g clip-path="url(#clip0_749_1312)">
<path d="M0 16.875V1.125C0 0.50625 0.50625 0 1.125 0H16.875C17.4937 0 18 0.50625 18 1.125V16.875C18 17.4937 17.4937 18 16.875 18H1.125C0.50625 18 0 17.4937 0 16.875Z" fill="#2C0E67"/>
<path d="M15.5333 14.1464C15.6885 14.1464 15.8145 14.0204 15.8145 13.8652C15.8145 13.8517 15.8138 13.8382 15.8115 13.8254L15.5723 12.1484H12.6555V14.1464H15.5333Z" fill="#FBFBFB"/>
<path d="M8.72552 6.14478H2.25002V5.62503H7.53752L5.87777 4.50003L9.00002 2.72778L12.1028 4.50003H12.1215L10.4618 5.62503H13.9088C14.3288 5.62503 14.685 5.93403 14.7443 6.34953L15.4965 11.616H2.24927V8.83203H8.72477C8.87627 8.83203 8.99927 8.70903 8.99927 8.55753C8.99927 8.40603 8.87627 8.28303 8.72477 8.28303H2.24927V7.76253H8.72477C8.87627 7.76253 8.99927 7.63953 8.99927 7.48803C8.99927 7.33653 8.87627 7.21353 8.72477 7.21353H2.24927V6.69378H8.72477C8.87627 6.69378 8.99927 6.57078 8.99927 6.41928C8.99927 6.26778 8.87627 6.14478 8.72552 6.14478ZM12.4868 8.55003C12.4868 8.70528 12.6128 8.83128 12.768 8.83128H14.2343C14.3895 8.83128 14.5155 8.70528 14.5155 8.55003C14.5155 8.53653 14.5148 8.52303 14.5125 8.51028L14.2088 6.38703C14.1893 6.24828 14.07 6.14553 13.9305 6.14553H12.7673C12.612 6.14553 12.486 6.27153 12.486 6.42678V8.55003H12.4868ZM9.50927 5.62503L11.103 4.54503L8.99852 3.34353L6.88877 4.54053L8.48927 5.62503H9.50927Z" fill="#FBFBFB"/>
<path d="M5.84326 13.5158C5.84326 12.7238 6.48601 12.0818 7.27801 12.0818C8.06926 12.0818 8.71201 12.7245 8.71201 13.5158C8.71201 14.3078 8.06926 14.9505 7.27801 14.9505C6.48526 14.9498 5.84326 14.3078 5.84326 13.5158Z" fill="#FBFBFB"/>
<path d="M9.2243 13.5158C9.2243 12.7238 9.86705 12.0818 10.6591 12.0818C11.4511 12.0818 12.0931 12.7245 12.0931 13.5158C12.0931 14.3078 11.4503 14.9505 10.6591 14.9505C9.86705 14.9498 9.2243 14.3078 9.2243 13.5158Z" fill="#FBFBFB"/>
<path d="M15.75 2.25V2.53125H2.25V2.25H15.75Z" fill="#FBFBFB"/>
<path d="M2.25 15.7499V15.2159H15.75V15.7499H2.25Z" fill="#FBFBFB"/>
<path d="M2.25 12.2347V12.1499H5.34375V14.1464H2.25V12.2347Z" fill="#FBFBFB"/>
</g>
<defs>
<clipPath id="clip0_749_1312">
<rect width="18" height="18" fill="white"/>
</clipPath>
</defs>
</svg>
