<svg width="48" height="48" viewBox="0 0 48 48" fill="none" xmlns="http://www.w3.org/2000/svg">
<g id="Property 1=green">
<rect width="48" height="48" rx="24" fill="#052E09"/>
<g id="train">
<mask id="mask0_89_1614" style="mask-type:alpha" maskUnits="userSpaceOnUse" x="8" y="8" width="32" height="32">
<rect id="Bounding box" x="8" y="8" width="32" height="32" fill="#D9D9D9"/>
</mask>
<g mask="url(#mask0_89_1614)">
<path id="train_2" d="M14 28.4103V16C14 14.976 14.2778 14.1568 14.8333 13.5423C15.3889 12.9279 16.1303 12.4587 17.0577 12.1347C17.985 11.8107 19.0512 11.5961 20.2563 11.491C21.4614 11.3859 22.7093 11.3333 24 11.3333C25.3811 11.3333 26.679 11.3859 27.8937 11.491C29.1081 11.5961 30.1688 11.8107 31.0757 12.1347C31.9826 12.4587 32.6967 12.9279 33.218 13.5423C33.7393 14.1568 34 14.976 34 16V28.4103C34 29.6017 33.5884 30.6089 32.7653 31.432C31.9422 32.2551 30.935 32.6667 29.7437 32.6667L31.7437 34.6667V35.3333H29.8463L27.1797 32.6667H20.8203L18.1537 35.3333H16.2563V34.6667L18.2563 32.6667C17.065 32.6667 16.0578 32.2551 15.2347 31.432C14.4116 30.6089 14 29.6017 14 28.4103ZM24 13.3333C21.5162 13.3333 19.7042 13.4893 18.564 13.8013C17.4238 14.1133 16.6922 14.5214 16.3693 15.0257H31.713C31.4308 14.4941 30.7162 14.0791 29.5693 13.7807C28.4222 13.4824 26.5658 13.3333 24 13.3333ZM16 22H23V17.0257H16V22ZM25 22H32V17.0257H25V22ZM19.3333 29.077C19.8342 29.077 20.25 28.9116 20.5807 28.5807C20.9116 28.25 21.077 27.8342 21.077 27.3333C21.077 26.8324 20.9116 26.4167 20.5807 26.086C20.25 25.7551 19.8342 25.5897 19.3333 25.5897C18.8324 25.5897 18.4167 25.7551 18.086 26.086C17.7551 26.4167 17.5897 26.8324 17.5897 27.3333C17.5897 27.8342 17.7551 28.25 18.086 28.5807C18.4167 28.9116 18.8324 29.077 19.3333 29.077ZM28.6667 29.077C29.1676 29.077 29.5833 28.9116 29.914 28.5807C30.2449 28.25 30.4103 27.8342 30.4103 27.3333C30.4103 26.8324 30.2449 26.4167 29.914 26.086C29.5833 25.7551 29.1676 25.5897 28.6667 25.5897C28.1658 25.5897 27.75 25.7551 27.4193 26.086C27.0884 26.4167 26.923 26.8324 26.923 27.3333C26.923 27.8342 27.0884 28.25 27.4193 28.5807C27.75 28.9116 28.1658 29.077 28.6667 29.077ZM18.2563 30.6667H29.7437C30.3812 30.6667 30.9167 30.45 31.35 30.0167C31.7833 29.5833 32 29.0479 32 28.4103V24H16V28.4103C16 29.0479 16.2167 29.5833 16.65 30.0167C17.0833 30.45 17.6188 30.6667 18.2563 30.6667Z" fill="#A4F5A6"/>
</g>
</g>
</g>
</svg>
